<svg width="24" height="24" viewBox="0 0 24 24" fill="none" xmlns="http://www.w3.org/2000/svg">
  <path fill="#EA4335" d="M12 10.2V14.1H17.42C17.18 15.36 16.46 16.42 15.38 17.13L18.68 19.69C20.6 17.92 21.7 15.31 21.7 12.21C21.7 11.5 21.64 10.82 21.52 10.16H12V10.2Z"/>
  <path fill="#4285F4" d="M12 22C14.7 22 16.96 21.11 18.61 19.59L15.31 17.03C14.39 17.65 13.21 18.01 12 18.01C9.45 18.01 7.29 16.29 6.52 13.98H3.1V16.61C4.84 20.07 8.22 22 12 22Z"/>
  <path fill="#FBBC05" d="M6.52 13.98C6.32 13.39 6.21 12.7 6.21 12C6.21 11.3 6.32 10.61 6.52 10.02V7.39H3.1C2.39 8.86 2 10.39 2 12C2 13.61 2.39 15.14 3.1 16.61L6.52 13.98Z"/>
  <path fill="#34A853" d="M12 5.99C13.47 5.99 14.79 6.5 15.83 7.5L18.7 4.63C16.95 2.99 14.69 2 12 2C8.22 2 4.84 3.93 3.1 7.39L6.52 10.02C7.29 7.71 9.45 5.99 12 5.99Z"/>
</svg>